<svg width="32" height="32" viewBox="0 0 32 32" fill="none" xmlns="http://www.w3.org/2000/svg">
  <defs>
    <!-- Main gradient matching app colors -->
    <linearGradient id="gradient" x1="0%" y1="0%" x2="100%" y2="100%">
      <stop offset="0%" style="stop-color:#667eea;stop-opacity:1" />
      <stop offset="100%" style="stop-color:#764ba2;stop-opacity:1" />
    </linearGradient>
    
    <!-- Darker gradient for depth -->
    <linearGradient id="shadowGradient" x1="0%" y1="0%" x2="100%" y2="100%">
      <stop offset="0%" style="stop-color:#4c63d2;stop-opacity:1" />
      <stop offset="100%" style="stop-color:#5a3b7a;stop-opacity:1" />
    </linearGradient>
    
    <!-- Light gradient for highlights -->
    <linearGradient id="highlightGradient" x1="0%" y1="0%" x2="100%" y2="100%">
      <stop offset="0%" style="stop-color:#8b9df5;stop-opacity:1" />
      <stop offset="100%" style="stop-color:#9b6bb8;stop-opacity:1" />
    </linearGradient>
  </defs>
  
  <!-- Outer shadow circle -->
  <circle cx="16" cy="17" r="14" fill="rgba(0,0,0,0.1)" opacity="0.3"/>
  
  <!-- Main background circle -->
  <circle cx="16" cy="16" r="14" fill="url(#gradient)"/>
  
  <!-- Inner highlight circle -->
  <circle cx="16" cy="16" r="13" fill="none" stroke="url(#highlightGradient)" stroke-width="0.5" opacity="0.4"/>
  
  <!-- Modern L and M letters -->
  <g fill="white">
    <!-- Letter L with modern styling -->
    <path d="M 6 7 L 6 25 L 8.5 25 L 8.5 22.5 L 14 22.5 L 14 20 L 8.5 20 L 8.5 7 Z" />
    
    <!-- Letter M with modern styling -->
    <path d="M 17 7 L 17 25 L 19.5 25 L 19.5 14 L 22 20 L 23 20 L 25.5 14 L 25.5 25 L 28 25 L 28 7 L 25 7 L 22.5 16 L 20 7 Z" />
  </g>
  
  <!-- Subtle inner shadow for depth -->
  <circle cx="16" cy="16" r="13.5" fill="none" stroke="url(#shadowGradient)" stroke-width="0.5" opacity="0.2"/>
  
  <!-- Glossy highlight effect -->
  <ellipse cx="13" cy="11" rx="4" ry="2" fill="rgba(255,255,255,0.2)" opacity="0.6"/>
</svg>